solid crane_base
facet normal -0.42437612639142724 0.9054860039498167 0.0
  outer loop
    vertex 0.5719858189960842 1.901847949337328 0.9375
    vertex 0.8208031077415066 1.98083088574286 0.0
    vertex 0.5719858189960842 1.901847949337328 0.0
  endloop
endfacet
facet normal -0.1755588376460045 0.984468940355349 0.0
  outer loop
    vertex 0.8208031077415066 1.98083088574286 0.0
    vertex 0.5719858189960842 1.901847949337328 0.9375
    vertex 0.8208031077415066 1.98083088574286 0.9375
  endloop
endfacet
facet normal -0.6442728834379821 0.7647956927614775 0.0
  outer loop
    vertex 0.35208906194952905 1.7611576381489884 0.9375
    vertex 0.5719858189960842 1.901847949337328 0.0
    vertex 0.35208906194952905 1.7611576381489884 0.0
  endloop
endfacet
facet normal -0.42437612639142724 0.9054860039498167 0.0
  outer loop
    vertex 0.5719858189960842 1.901847949337328 0.0
    vertex 0.35208906194952905 1.7611576381489884 0.9375
    vertex 0.5719858189960842 1.901847949337328 0.9375
  endloop
endfacet
facet normal -0.6442728834379821 0.7647956927614775 0.0
  outer loop
    vertex 0.35208906194952905 1.7611576381489884 0.9375
    vertex 0.17609843719799145 1.5683477643835957 0.0
    vertex 0.17609843719799145 1.5683477643835957 0.9375
  endloop
endfacet
facet normal -0.82026350818952 0.5719858189960845 0.0
  outer loop
    vertex 0.17609843719799145 1.5683477643835957 0.0
    vertex 0.35208906194952905 1.7611576381489884 0.9375
    vertex 0.35208906194952905 1.7611576381489884 0.0
  endloop
endfacet
facet normal -0.1755588376460045 0.984468940355349 0.0
  outer loop
    vertex 0.8208031077415066 1.98083088574286 0.9375
    vertex 1.081584441147808 1.9927238907750224 0.0
    vertex 0.8208031077415066 1.98083088574286 0.0
  endloop
endfacet
facet normal 0.08522249576029663 0.9963619453875113 0.0
  outer loop
    vertex 1.081584441147808 1.9927238907750224 0.0
    vertex 0.8208031077415066 1.98083088574286 0.9375
    vertex 1.081584441147808 1.9927238907750224 0.9375
  endloop
endfacet
facet normal 0.5719858189960844 0.82026350818952 0.0
  outer loop
    vertex 1.5683477643835952 1.8166254535770312 0.9375
    vertex 1.7611576381489882 1.6406348288254933 0.0
    vertex 1.5683477643835952 1.8166254535770312 0.0
  endloop
endfacet
facet normal 0.7647956927614774 0.6442728834379823 0.0
  outer loop
    vertex 1.7611576381489882 1.6406348288254933 0.0
    vertex 1.5683477643835952 1.8166254535770312 0.9375
    vertex 1.7611576381489882 1.6406348288254933 0.9375
  endloop
endfacet
facet normal -0.82026350818952 0.5719858189960845 0.0
  outer loop
    vertex 0.17609843719799145 1.5683477643835957 0.9375
    vertex 0.05600741498002959 1.3365580023048782 0.0
    vertex 0.05600741498002959 1.3365580023048782 0.9375
  endloop
endfacet
facet normal -0.9403545304074817 0.34019605691736704 0.0
  outer loop
    vertex 0.05600741498002959 1.3365580023048782 0.0
    vertex 0.17609843719799145 1.5683477643835957 0.9375
    vertex 0.17609843719799145 1.5683477643835957 0.0
  endloop
endfacet
facet normal -0.9403545304074817 0.34019605691736704 0.0
  outer loop
    vertex 0.05600741498002959 1.3365580023048782 0.9375
    vertex 0.0 1.0815844411478084 0.0
    vertex 0.0 1.0815844411478084 0.9375
  endloop
endfacet
facet normal -0.9963619453875113 0.08522249576029702 0.0
  outer loop
    vertex 0.0 1.0815844411478084 0.0
    vertex 0.05600741498002959 1.3365580023048782 0.9375
    vertex 0.05600741498002959 1.3365580023048782 0.0
  endloop
endfacet
facet normal -0.9963619453875113 0.08522249576029702 0.0
  outer loop
    vertex 0.0 1.0815844411478084 0.9375
    vertex 0.011893005032162285 0.8208031077415068 0.0
    vertex 0.011893005032162285 0.8208031077415068 0.9375
  endloop
endfacet
facet normal -0.9844689403553493 -0.17555883764600433 0.0
  outer loop
    vertex 0.011893005032162285 0.8208031077415068 0.0
    vertex 0.0 1.0815844411478084 0.9375
    vertex 0.0 1.0815844411478084 0.0
  endloop
endfacet
facet normal -0.9844689403553493 -0.17555883764600433 0.0
  outer loop
    vertex 0.011893005032162285 0.8208031077415068 0.9375
    vertex 0.09087594143769451 0.5719858189960845 0.0
    vertex 0.09087594143769451 0.5719858189960845 0.9375
  endloop
endfacet
facet normal -0.9054860039498169 -0.42437612639142674 0.0
  outer loop
    vertex 0.09087594143769451 0.5719858189960845 0.0
    vertex 0.011893005032162285 0.8208031077415068 0.9375
    vertex 0.011893005032162285 0.8208031077415068 0.0
  endloop
endfacet
facet normal -0.9054860039498169 -0.42437612639142674 0.0
  outer loop
    vertex 0.09087594143769451 0.5719858189960845 0.9375
    vertex 0.2315662526260336 0.3520890619495294 0.0
    vertex 0.2315662526260336 0.3520890619495294 0.9375
  endloop
endfacet
facet normal -0.7647956927614777 -0.644272883437982 0.0
  outer loop
    vertex 0.2315662526260336 0.3520890619495294 0.0
    vertex 0.09087594143769451 0.5719858189960845 0.9375
    vertex 0.09087594143769451 0.5719858189960845 0.0
  endloop
endfacet
facet normal -0.5719858189960842 -0.82026350818952 0.0
  outer loop
    vertex 0.4243761263914271 0.17609843719799123 0.9375
    vertex 0.2315662526260336 0.3520890619495294 0.0
    vertex 0.4243761263914271 0.17609843719799123 0.0
  endloop
endfacet
facet normal -0.7647956927614777 -0.644272883437982 0.0
  outer loop
    vertex 0.2315662526260336 0.3520890619495294 0.0
    vertex 0.4243761263914271 0.17609843719799123 0.9375
    vertex 0.2315662526260336 0.3520890619495294 0.9375
  endloop
endfacet
facet normal -0.34019605691736704 -0.9403545304074817 0.0
  outer loop
    vertex 0.6561658884701441 0.05600741498002959 0.9375
    vertex 0.4243761263914271 0.17609843719799123 0.0
    vertex 0.6561658884701441 0.05600741498002959 0.0
  endloop
endfacet
facet normal -0.5719858189960842 -0.82026350818952 0.0
  outer loop
    vertex 0.4243761263914271 0.17609843719799123 0.0
    vertex 0.6561658884701441 0.05600741498002959 0.9375
    vertex 0.4243761263914271 0.17609843719799123 0.9375
  endloop
endfacet
facet normal 0.3401960569173668 0.940354530407482 0.0
  outer loop
    vertex 1.336558002304878 1.9367164757949928 0.9375
    vertex 1.5683477643835952 1.8166254535770312 0.0
    vertex 1.336558002304878 1.9367164757949928 0.0
  endloop
endfacet
facet normal 0.5719858189960844 0.82026350818952 0.0
  outer loop
    vertex 1.5683477643835952 1.8166254535770312 0.0
    vertex 1.336558002304878 1.9367164757949928 0.9375
    vertex 1.5683477643835952 1.8166254535770312 0.9375
  endloop
endfacet
facet normal 0.08522249576029663 0.9963619453875113 0.0
  outer loop
    vertex 1.081584441147808 1.9927238907750224 0.9375
    vertex 1.336558002304878 1.9367164757949928 0.0
    vertex 1.081584441147808 1.9927238907750224 0.0
  endloop
endfacet
facet normal 0.3401960569173668 0.940354530407482 0.0
  outer loop
    vertex 1.336558002304878 1.9367164757949928 0.0
    vertex 1.081584441147808 1.9927238907750224 0.9375
    vertex 1.336558002304878 1.9367164757949928 0.9375
  endloop
endfacet
facet normal 0.9844689403553492 0.1755588376460046 0.0
  outer loop
    vertex 1.98083088574286 1.1719207830335159 0.0
    vertex 1.9927238907750224 0.9111394496272145 0.9375
    vertex 1.9927238907750224 0.9111394496272145 0.0
  endloop
endfacet
facet normal 0.9963619453875113 -0.08522249576029678 0.0
  outer loop
    vertex 1.9927238907750224 0.9111394496272145 0.9375
    vertex 1.98083088574286 1.1719207830335159 0.0
    vertex 1.98083088574286 1.1719207830335159 0.9375
  endloop
endfacet
facet normal 0.9054860039498166 0.42437612639142736 0.0
  outer loop
    vertex 1.9018479493373275 1.4207380717789384 0.0
    vertex 1.98083088574286 1.1719207830335159 0.9375
    vertex 1.98083088574286 1.1719207830335159 0.0
  endloop
endfacet
facet normal 0.9844689403553492 0.1755588376460046 0.0
  outer loop
    vertex 1.98083088574286 1.1719207830335159 0.9375
    vertex 1.9018479493373275 1.4207380717789384 0.0
    vertex 1.9018479493373275 1.4207380717789384 0.9375
  endloop
endfacet
facet normal 0.6442728834379828 -0.764795692761477 0.0
  outer loop
    vertex 1.6406348288254935 0.23156625262603425 0.9375
    vertex 1.4207380717789384 0.09087594143769451 0.0
    vertex 1.6406348288254935 0.23156625262603425 0.0
  endloop
endfacet
facet normal 0.4243761263914275 -0.9054860039498165 0.0
  outer loop
    vertex 1.4207380717789384 0.09087594143769451 0.0
    vertex 1.6406348288254935 0.23156625262603425 0.9375
    vertex 1.4207380717789384 0.09087594143769451 0.9375
  endloop
endfacet
facet normal 0.8202635081895202 -0.5719858189960841 0.0
  outer loop
    vertex 1.8166254535770312 0.4243761263914272 0.0
    vertex 1.6406348288254935 0.23156625262603425 0.9375
    vertex 1.6406348288254935 0.23156625262603425 0.0
  endloop
endfacet
facet normal 0.6442728834379828 -0.764795692761477 0.0
  outer loop
    vertex 1.6406348288254935 0.23156625262603425 0.9375
    vertex 1.8166254535770312 0.4243761263914272 0.0
    vertex 1.8166254535770312 0.4243761263914272 0.9375
  endloop
endfacet
facet normal 0.940354530407482 -0.34019605691736665 0.0
  outer loop
    vertex 1.9367164757949928 0.6561658884701447 0.0
    vertex 1.8166254535770312 0.4243761263914272 0.9375
    vertex 1.8166254535770312 0.4243761263914272 0.0
  endloop
endfacet
facet normal 0.8202635081895202 -0.5719858189960841 0.0
  outer loop
    vertex 1.8166254535770312 0.4243761263914272 0.9375
    vertex 1.9367164757949928 0.6561658884701447 0.0
    vertex 1.9367164757949928 0.6561658884701447 0.9375
  endloop
endfacet
facet normal 0.9963619453875113 -0.08522249576029678 0.0
  outer loop
    vertex 1.9927238907750224 0.9111394496272145 0.0
    vertex 1.9367164757949928 0.6561658884701447 0.9375
    vertex 1.9367164757949928 0.6561658884701447 0.0
  endloop
endfacet
facet normal 0.940354530407482 -0.34019605691736665 0.0
  outer loop
    vertex 1.9367164757949928 0.6561658884701447 0.9375
    vertex 1.9927238907750224 0.9111394496272145 0.0
    vertex 1.9927238907750224 0.9111394496272145 0.9375
  endloop
endfacet
facet normal 0.4243761263914275 -0.9054860039498165 0.0
  outer loop
    vertex 1.4207380717789384 0.09087594143769451 0.9375
    vertex 1.1719207830335159 0.011893005032162396 0.0
    vertex 1.4207380717789384 0.09087594143769451 0.0
  endloop
endfacet
facet normal 0.1755588376460041 -0.9844689403553492 0.0
  outer loop
    vertex 1.1719207830335159 0.011893005032162396 0.0
    vertex 1.4207380717789384 0.09087594143769451 0.9375
    vertex 1.1719207830335159 0.011893005032162396 0.9375
  endloop
endfacet
facet normal -0.08522249576029682 -0.9963619453875113 0.0
  outer loop
    vertex 0.9111394496272139 0.0 0.9375
    vertex 0.6561658884701441 0.05600741498002959 0.0
    vertex 0.9111394496272139 0.0 0.0
  endloop
endfacet
facet normal -0.34019605691736704 -0.9403545304074817 0.0
  outer loop
    vertex 0.6561658884701441 0.05600741498002959 0.0
    vertex 0.9111394496272139 0.0 0.9375
    vertex 0.6561658884701441 0.05600741498002959 0.9375
  endloop
endfacet
facet normal 0.1755588376460041 -0.9844689403553492 0.0
  outer loop
    vertex 1.1719207830335159 0.011893005032162396 0.9375
    vertex 0.9111394496272139 0.0 0.0
    vertex 1.1719207830335159 0.011893005032162396 0.0
  endloop
endfacet
facet normal -0.08522249576029682 -0.9963619453875113 0.0
  outer loop
    vertex 0.9111394496272139 0.0 0.0
    vertex 1.1719207830335159 0.011893005032162396 0.9375
    vertex 0.9111394496272139 0.0 0.9375
  endloop
endfacet
facet normal 0.0 0.0 -1.0
  outer loop
    vertex 0.6477717637686234 1.3435012504615589 0.6875
    vertex 0.7583105093732673 1.107962504856915 0.6875
    vertex 0.6477717637686234 0.6560012504615589 0.6875
  endloop
endfacet
facet normal 0.0 0.0 -1.0
  outer loop
    vertex 0.7583105093732673 1.107962504856915 0.6875
    vertex 0.6477717637686234 1.3435012504615589 0.6875
    vertex 1.3352717637686236 1.3435012504615589 0.6875
  endloop
endfacet
facet normal 0.0 0.0 -1.0
  outer loop
    vertex 0.7583105093732673 1.107962504856915 0.6875
    vertex 1.3352717637686236 1.3435012504615589 0.6875
    vertex 0.8833105093732674 1.107962504856915 0.6875
  endloop
endfacet
facet normal 0.0 0.0 -1.0
  outer loop
    vertex 0.6477717637686234 0.6560012504615589 0.6875
    vertex 0.7583105093732673 0.9035543231297205 0.6875
    vertex 1.3352717637686236 0.6560012504615589 0.6875
  endloop
endfacet
facet normal 0.0 0.0 -1.0
  outer loop
    vertex 0.7583105093732673 0.9035543231297205 0.6875
    vertex 0.6477717637686234 0.6560012504615589 0.6875
    vertex 0.7583105093732673 1.107962504856915 0.6875
  endloop
endfacet
facet normal 0.0 0.0 -1.0
  outer loop
    vertex 1.3352717637686236 0.6560012504615589 0.6875
    vertex 0.7583105093732673 0.9035543231297205 0.6875
    vertex 0.8833105093732673 0.9035543231297205 0.6875
  endloop
endfacet
facet normal 0.0 0.0 -1.0
  outer loop
    vertex 1.3352717637686236 0.6560012504615589 0.6875
    vertex 0.8833105093732673 0.9035543231297205 0.6875
    vertex 0.8833105093732674 1.107962504856915 0.6875
  endloop
endfacet
facet normal 0.0 0.0 -1.0
  outer loop
    vertex 1.3352717637686236 0.6560012504615589 0.6875
    vertex 0.8833105093732674 1.107962504856915 0.6875
    vertex 1.3352717637686236 1.3435012504615589 0.6875
  endloop
endfacet
facet normal -0.7808688094430303 0.6246950475544243 0.0
  outer loop
    vertex 1.484116537973796 0.9971463846148065 0.125
    vertex 0.9841165379737961 0.37214638461480654 0.0
    vertex 0.9841165379737961 0.37214638461480654 0.125
  endloop
endfacet
facet normal -0.7808688094430303 0.6246950475544243 0.0
  outer loop
    vertex 0.9841165379737961 0.37214638461480654 0.0
    vertex 1.484116537973796 0.9971463846148065 0.125
    vertex 1.484116537973796 0.9971463846148065 0.0
  endloop
endfacet
facet normal -1.0 1.3562455714139985e-16 -6.921497306958873e-19
  outer loop
    vertex 0.7583105093732673 1.107962504856915 0.6875
    vertex 0.7583105093732673 0.9035543231297205 0.125
    vertex 0.7583105093732673 0.9035543231297205 0.6875
  endloop
endfacet
facet normal -1.0 1.3562455714139985e-16 -6.921497306958873e-19
  outer loop
    vertex 0.7583105093732673 0.9035543231297205 0.125
    vertex 0.7583105093732673 1.107962504856915 0.6875
    vertex 0.7583105093732673 1.107962504856915 0.125
  endloop
endfacet
facet normal -1.0 0.0 0.0
  outer loop
    vertex 0.6477717637686234 1.3435012504615589 0.9375
    vertex 0.6477717637686234 0.6560012504615589 0.6875
    vertex 0.6477717637686234 0.6560012504615589 0.9375
  endloop
endfacet
facet normal -1.0 0.0 0.0
  outer loop
    vertex 0.6477717637686234 0.6560012504615589 0.6875
    vertex 0.6477717637686234 1.3435012504615589 0.9375
    vertex 0.6477717637686234 1.3435012504615589 0.6875
  endloop
endfacet
facet normal 0.7647956927614774 0.6442728834379823 0.0
  outer loop
    vertex 1.7611576381489882 1.6406348288254933 0.0
    vertex 1.9018479493373275 1.4207380717789384 0.9375
    vertex 1.9018479493373275 1.4207380717789384 0.0
  endloop
endfacet
facet normal 0.9054860039498166 0.42437612639142736 0.0
  outer loop
    vertex 1.9018479493373275 1.4207380717789384 0.9375
    vertex 1.7611576381489882 1.6406348288254933 0.0
    vertex 1.7611576381489882 1.6406348288254933 0.9375
  endloop
endfacet
facet normal 1.0 -9.512765900086944e-16 -3.369105699300511e-18
  outer loop
    vertex 0.8833105093732674 1.107962504856915 0.125
    vertex 0.8833105093732673 0.9035543231297205 0.6875
    vertex 0.8833105093732673 0.9035543231297205 0.125
  endloop
endfacet
facet normal 1.0 -9.512765900086944e-16 -3.369105699300511e-18
  outer loop
    vertex 0.8833105093732673 0.9035543231297205 0.6875
    vertex 0.8833105093732674 1.107962504856915 0.125
    vertex 0.8833105093732674 1.107962504856915 0.6875
  endloop
endfacet
facet normal 0.0 1.0 0.0
  outer loop
    vertex 0.6477717637686234 1.3435012504615589 0.9375
    vertex 1.3352717637686236 1.3435012504615589 0.6875
    vertex 0.6477717637686234 1.3435012504615589 0.6875
  endloop
endfacet
facet normal 0.0 1.0 0.0
  outer loop
    vertex 1.3352717637686236 1.3435012504615589 0.6875
    vertex 0.6477717637686234 1.3435012504615589 0.9375
    vertex 1.3352717637686236 1.3435012504615589 0.9375
  endloop
endfacet
facet normal 0.0 -1.0 0.0
  outer loop
    vertex 0.8833105093732673 0.9035543231297205 0.6875
    vertex 0.7583105093732673 0.9035543231297205 0.125
    vertex 0.8833105093732673 0.9035543231297205 0.125
  endloop
endfacet
facet normal 0.0 -1.0 0.0
  outer loop
    vertex 0.7583105093732673 0.9035543231297205 0.125
    vertex 0.8833105093732673 0.9035543231297205 0.6875
    vertex 0.7583105093732673 0.9035543231297205 0.6875
  endloop
endfacet
facet normal 1.0 0.0 0.0
  outer loop
    vertex 1.3352717637686236 1.3435012504615589 0.6875
    vertex 1.3352717637686236 0.6560012504615589 0.9375
    vertex 1.3352717637686236 0.6560012504615589 0.6875
  endloop
endfacet
facet normal 1.0 0.0 0.0
  outer loop
    vertex 1.3352717637686236 0.6560012504615589 0.9375
    vertex 1.3352717637686236 1.3435012504615589 0.6875
    vertex 1.3352717637686236 1.3435012504615589 0.9375
  endloop
endfacet
facet normal 0.0 -1.0 0.0
  outer loop
    vertex 1.3352717637686236 0.6560012504615589 0.9375
    vertex 0.6477717637686234 0.6560012504615589 0.6875
    vertex 1.3352717637686236 0.6560012504615589 0.6875
  endloop
endfacet
facet normal 0.0 -1.0 0.0
  outer loop
    vertex 0.6477717637686234 0.6560012504615589 0.6875
    vertex 1.3352717637686236 0.6560012504615589 0.9375
    vertex 0.6477717637686234 0.6560012504615589 0.9375
  endloop
endfacet
facet normal 0.7808688094430303 0.6246950475544243 0.0
  outer loop
    vertex 0.48411653797379606 0.9971463846148065 0.0
    vertex 0.9841165379737961 0.37214638461480654 0.125
    vertex 0.9841165379737961 0.37214638461480654 0.0
  endloop
endfacet
facet normal 0.7808688094430303 0.6246950475544243 0.0
  outer loop
    vertex 0.9841165379737961 0.37214638461480654 0.125
    vertex 0.48411653797379606 0.9971463846148065 0.0
    vertex 0.48411653797379606 0.9971463846148065 0.125
  endloop
endfacet
facet normal 0.0 0.0 -1.0
  outer loop
    vertex 0.940209037405216 1.6206021820806895 0.125
    vertex 0.7583105093732673 1.107962504856915 0.125
    vertex 0.48411653797379606 0.9971463846148065 0.125
  endloop
endfacet
facet normal 0.0 0.0 -1.0
  outer loop
    vertex 0.7583105093732673 1.107962504856915 0.125
    vertex 0.940209037405216 1.6206021820806895 0.125
    vertex 0.8833105093732674 1.107962504856915 0.125
  endloop
endfacet
facet normal 0.0 0.0 -1.0
  outer loop
    vertex 0.48411653797379606 0.9971463846148065 0.125
    vertex 0.7583105093732673 0.9035543231297205 0.125
    vertex 0.9841165379737961 0.37214638461480654 0.125
  endloop
endfacet
facet normal 0.0 0.0 -1.0
  outer loop
    vertex 0.7583105093732673 0.9035543231297205 0.125
    vertex 0.48411653797379606 0.9971463846148065 0.125
    vertex 0.7583105093732673 1.107962504856915 0.125
  endloop
endfacet
facet normal 0.0 0.0 -1.0
  outer loop
    vertex 0.9841165379737961 0.37214638461480654 0.125
    vertex 0.7583105093732673 0.9035543231297205 0.125
    vertex 0.8833105093732673 0.9035543231297205 0.125
  endloop
endfacet
facet normal 0.0 0.0 -1.0
  outer loop
    vertex 0.9841165379737961 0.37214638461480654 0.125
    vertex 0.8833105093732673 0.9035543231297205 0.125
    vertex 0.8833105093732674 1.107962504856915 0.125
  endloop
endfacet
facet normal 0.0 0.0 -1.0
  outer loop
    vertex 0.9841165379737961 0.37214638461480654 0.125
    vertex 0.8833105093732674 1.107962504856915 0.125
    vertex 0.940209037405216 1.6206021820806895 0.125
  endloop
endfacet
facet normal 0.0 0.0 -1.0
  outer loop
    vertex 0.9841165379737961 0.37214638461480654 0.125
    vertex 0.940209037405216 1.6206021820806895 0.125
    vertex 1.484116537973796 0.9971463846148065 0.125
  endloop
endfacet
facet normal 0.0 0.0 -1.0
  outer loop
    vertex 0.05600741498002959 1.3365580023048782 0.0
    vertex 0.011893005032162285 0.8208031077415068 0.0
    vertex 0.0 1.0815844411478084 0.0
  endloop
endfacet
facet normal 0.0 0.0 -1.0
  outer loop
    vertex 0.011893005032162285 0.8208031077415068 0.0
    vertex 0.05600741498002959 1.3365580023048782 0.0
    vertex 0.09087594143769451 0.5719858189960845 0.0
  endloop
endfacet
facet normal 0.0 0.0 -1.0
  outer loop
    vertex 0.09087594143769451 0.5719858189960845 0.0
    vertex 0.05600741498002959 1.3365580023048782 0.0
    vertex 0.17609843719799145 1.5683477643835957 0.0
  endloop
endfacet
facet normal 0.0 0.0 -1.0
  outer loop
    vertex 0.09087594143769451 0.5719858189960845 0.0
    vertex 0.17609843719799145 1.5683477643835957 0.0
    vertex 0.2315662526260336 0.3520890619495294 0.0
  endloop
endfacet
facet normal 0.0 0.0 -1.0
  outer loop
    vertex 0.2315662526260336 0.3520890619495294 0.0
    vertex 0.17609843719799145 1.5683477643835957 0.0
    vertex 0.35208906194952905 1.7611576381489884 0.0
  endloop
endfacet
facet normal 0.0 0.0 -1.0
  outer loop
    vertex 0.2315662526260336 0.3520890619495294 0.0
    vertex 0.35208906194952905 1.7611576381489884 0.0
    vertex 0.4243761263914271 0.17609843719799123 0.0
  endloop
endfacet
facet normal 0.0 0.0 -1.0
  outer loop
    vertex 0.4243761263914271 0.17609843719799123 0.0
    vertex 0.35208906194952905 1.7611576381489884 0.0
    vertex 0.48411653797379606 0.9971463846148065 0.0
  endloop
endfacet
facet normal 0.0 0.0 -1.0
  outer loop
    vertex 0.48411653797379606 0.9971463846148065 0.0
    vertex 0.35208906194952905 1.7611576381489884 0.0
    vertex 0.5719858189960842 1.901847949337328 0.0
  endloop
endfacet
facet normal 0.0 0.0 -1.0
  outer loop
    vertex 0.48411653797379606 0.9971463846148065 0.0
    vertex 0.5719858189960842 1.901847949337328 0.0
    vertex 0.940209037405216 1.6206021820806895 0.0
  endloop
endfacet
facet normal 0.0 0.0 -1.0
  outer loop
    vertex 0.940209037405216 1.6206021820806895 0.0
    vertex 0.5719858189960842 1.901847949337328 0.0
    vertex 0.8208031077415066 1.98083088574286 0.0
  endloop
endfacet
facet normal 0.0 0.0 -1.0
  outer loop
    vertex 0.940209037405216 1.6206021820806895 0.0
    vertex 0.8208031077415066 1.98083088574286 0.0
    vertex 1.081584441147808 1.9927238907750224 0.0
  endloop
endfacet
facet normal 0.0 0.0 -1.0
  outer loop
    vertex 0.940209037405216 1.6206021820806895 0.0
    vertex 1.081584441147808 1.9927238907750224 0.0
    vertex 1.484116537973796 0.9971463846148065 0.0
  endloop
endfacet
facet normal 0.0 0.0 -1.0
  outer loop
    vertex 1.484116537973796 0.9971463846148065 0.0
    vertex 1.081584441147808 1.9927238907750224 0.0
    vertex 1.336558002304878 1.9367164757949928 0.0
  endloop
endfacet
facet normal 0.0 0.0 -1.0
  outer loop
    vertex 1.484116537973796 0.9971463846148065 0.0
    vertex 1.336558002304878 1.9367164757949928 0.0
    vertex 1.5683477643835952 1.8166254535770312 0.0
  endloop
endfacet
facet normal 0.0 0.0 -1.0
  outer loop
    vertex 0.48411653797379606 0.9971463846148065 0.0
    vertex 0.6561658884701441 0.05600741498002959 0.0
    vertex 0.4243761263914271 0.17609843719799123 0.0
  endloop
endfacet
facet normal 0.0 0.0 -1.0
  outer loop
    vertex 0.6561658884701441 0.05600741498002959 0.0
    vertex 0.48411653797379606 0.9971463846148065 0.0
    vertex 0.9841165379737961 0.37214638461480654 0.0
  endloop
endfacet
facet normal 0.0 0.0 -1.0
  outer loop
    vertex 0.6561658884701441 0.05600741498002959 0.0
    vertex 0.9841165379737961 0.37214638461480654 0.0
    vertex 0.9111394496272139 0.0 0.0
  endloop
endfacet
facet normal 0.0 0.0 -1.0
  outer loop
    vertex 0.9111394496272139 0.0 0.0
    vertex 0.9841165379737961 0.37214638461480654 0.0
    vertex 1.1719207830335159 0.011893005032162396 0.0
  endloop
endfacet
facet normal 0.0 0.0 -1.0
  outer loop
    vertex 1.1719207830335159 0.011893005032162396 0.0
    vertex 0.9841165379737961 0.37214638461480654 0.0
    vertex 1.484116537973796 0.9971463846148065 0.0
  endloop
endfacet
facet normal 0.0 0.0 -1.0
  outer loop
    vertex 1.1719207830335159 0.011893005032162396 0.0
    vertex 1.484116537973796 0.9971463846148065 0.0
    vertex 1.4207380717789384 0.09087594143769451 0.0
  endloop
endfacet
facet normal 0.0 0.0 -1.0
  outer loop
    vertex 1.4207380717789384 0.09087594143769451 0.0
    vertex 1.484116537973796 0.9971463846148065 0.0
    vertex 1.6406348288254935 0.23156625262603425 0.0
  endloop
endfacet
facet normal 0.0 0.0 -1.0
  outer loop
    vertex 1.6406348288254935 0.23156625262603425 0.0
    vertex 1.484116537973796 0.9971463846148065 0.0
    vertex 1.5683477643835952 1.8166254535770312 0.0
  endloop
endfacet
facet normal 0.0 0.0 -1.0
  outer loop
    vertex 1.6406348288254935 0.23156625262603425 0.0
    vertex 1.5683477643835952 1.8166254535770312 0.0
    vertex 1.7611576381489882 1.6406348288254933 0.0
  endloop
endfacet
facet normal 0.0 0.0 -1.0
  outer loop
    vertex 1.6406348288254935 0.23156625262603425 0.0
    vertex 1.7611576381489882 1.6406348288254933 0.0
    vertex 1.8166254535770312 0.4243761263914272 0.0
  endloop
endfacet
facet normal 0.0 0.0 -1.0
  outer loop
    vertex 1.8166254535770312 0.4243761263914272 0.0
    vertex 1.7611576381489882 1.6406348288254933 0.0
    vertex 1.9018479493373275 1.4207380717789384 0.0
  endloop
endfacet
facet normal 0.0 0.0 -1.0
  outer loop
    vertex 1.8166254535770312 0.4243761263914272 0.0
    vertex 1.9018479493373275 1.4207380717789384 0.0
    vertex 1.9367164757949928 0.6561658884701447 0.0
  endloop
endfacet
facet normal 0.0 0.0 -1.0
  outer loop
    vertex 1.9367164757949928 0.6561658884701447 0.0
    vertex 1.9018479493373275 1.4207380717789384 0.0
    vertex 1.98083088574286 1.1719207830335159 0.0
  endloop
endfacet
facet normal 0.0 0.0 -1.0
  outer loop
    vertex 1.9367164757949928 0.6561658884701447 0.0
    vertex 1.98083088574286 1.1719207830335159 0.0
    vertex 1.9927238907750224 0.9111394496272145 0.0
  endloop
endfacet
facet normal 0.8070887257062972 -0.5904301727027383 0.0
  outer loop
    vertex 0.940209037405216 1.6206021820806895 0.0
    vertex 0.48411653797379606 0.9971463846148065 0.125
    vertex 0.48411653797379606 0.9971463846148065 0.0
  endloop
endfacet
facet normal 0.8070887257062972 -0.5904301727027383 0.0
  outer loop
    vertex 0.48411653797379606 0.9971463846148065 0.125
    vertex 0.940209037405216 1.6206021820806895 0.0
    vertex 0.940209037405216 1.6206021820806895 0.125
  endloop
endfacet
facet normal -0.7535440265269759 -0.657397444538319 -0.0
  outer loop
    vertex 0.940209037405216 1.6206021820806895 0.125
    vertex 1.484116537973796 0.9971463846148065 0.0
    vertex 1.484116537973796 0.9971463846148065 0.125
  endloop
endfacet
facet normal -0.7535440265269759 -0.657397444538319 -0.0
  outer loop
    vertex 1.484116537973796 0.9971463846148065 0.0
    vertex 0.940209037405216 1.6206021820806895 0.125
    vertex 0.940209037405216 1.6206021820806895 0.0
  endloop
endfacet
facet normal 0.0 1.0 0.0
  outer loop
    vertex 0.7583105093732673 1.107962504856915 0.6875
    vertex 0.8833105093732674 1.107962504856915 0.125
    vertex 0.7583105093732673 1.107962504856915 0.125
  endloop
endfacet
facet normal 0.0 1.0 0.0
  outer loop
    vertex 0.8833105093732674 1.107962504856915 0.125
    vertex 0.7583105093732673 1.107962504856915 0.6875
    vertex 0.8833105093732674 1.107962504856915 0.6875
  endloop
endfacet
facet normal 0.0 0.0 1.0
  outer loop
    vertex 0.011893005032162285 0.8208031077415068 0.9375
    vertex 0.05600741498002959 1.3365580023048782 0.9375
    vertex 0.0 1.0815844411478084 0.9375
  endloop
endfacet
facet normal 0.0 0.0 1.0
  outer loop
    vertex 0.05600741498002959 1.3365580023048782 0.9375
    vertex 0.011893005032162285 0.8208031077415068 0.9375
    vertex 0.09087594143769451 0.5719858189960845 0.9375
  endloop
endfacet
facet normal 0.0 0.0 1.0
  outer loop
    vertex 0.05600741498002959 1.3365580023048782 0.9375
    vertex 0.09087594143769451 0.5719858189960845 0.9375
    vertex 0.17609843719799145 1.5683477643835957 0.9375
  endloop
endfacet
facet normal 0.0 0.0 1.0
  outer loop
    vertex 0.17609843719799145 1.5683477643835957 0.9375
    vertex 0.09087594143769451 0.5719858189960845 0.9375
    vertex 0.2315662526260336 0.3520890619495294 0.9375
  endloop
endfacet
facet normal 0.0 0.0 1.0
  outer loop
    vertex 0.17609843719799145 1.5683477643835957 0.9375
    vertex 0.2315662526260336 0.3520890619495294 0.9375
    vertex 0.35208906194952905 1.7611576381489884 0.9375
  endloop
endfacet
facet normal 0.0 0.0 1.0
  outer loop
    vertex 0.35208906194952905 1.7611576381489884 0.9375
    vertex 0.2315662526260336 0.3520890619495294 0.9375
    vertex 0.4243761263914271 0.17609843719799123 0.9375
  endloop
endfacet
facet normal 0.0 0.0 1.0
  outer loop
    vertex 0.35208906194952905 1.7611576381489884 0.9375
    vertex 0.4243761263914271 0.17609843719799123 0.9375
    vertex 0.5719858189960842 1.901847949337328 0.9375
  endloop
endfacet
facet normal 0.0 0.0 1.0
  outer loop
    vertex 0.5719858189960842 1.901847949337328 0.9375
    vertex 0.4243761263914271 0.17609843719799123 0.9375
    vertex 0.6561658884701441 0.05600741498002959 0.9375
  endloop
endfacet
facet normal 0.0 0.0 1.0
  outer loop
    vertex 0.5719858189960842 1.901847949337328 0.9375
    vertex 0.6561658884701441 0.05600741498002959 0.9375
    vertex 0.6477717637686234 0.6560012504615589 0.9375
  endloop
endfacet
facet normal 0.0 0.0 1.0
  outer loop
    vertex 0.6477717637686234 0.6560012504615589 0.9375
    vertex 0.6561658884701441 0.05600741498002959 0.9375
    vertex 1.3352717637686236 0.6560012504615589 0.9375
  endloop
endfacet
facet normal 0.0 0.0 1.0
  outer loop
    vertex 1.3352717637686236 0.6560012504615589 0.9375
    vertex 0.6561658884701441 0.05600741498002959 0.9375
    vertex 0.9111394496272139 0.0 0.9375
  endloop
endfacet
facet normal 0.0 0.0 1.0
  outer loop
    vertex 1.3352717637686236 0.6560012504615589 0.9375
    vertex 0.9111394496272139 0.0 0.9375
    vertex 1.1719207830335159 0.011893005032162396 0.9375
  endloop
endfacet
facet normal 0.0 0.0 1.0
  outer loop
    vertex 1.3352717637686236 0.6560012504615589 0.9375
    vertex 1.1719207830335159 0.011893005032162396 0.9375
    vertex 1.4207380717789384 0.09087594143769451 0.9375
  endloop
endfacet
facet normal 0.0 0.0 1.0
  outer loop
    vertex 1.3352717637686236 0.6560012504615589 0.9375
    vertex 1.4207380717789384 0.09087594143769451 0.9375
    vertex 1.3352717637686236 1.3435012504615589 0.9375
  endloop
endfacet
facet normal 0.0 0.0 1.0
  outer loop
    vertex 1.3352717637686236 1.3435012504615589 0.9375
    vertex 1.4207380717789384 0.09087594143769451 0.9375
    vertex 1.336558002304878 1.9367164757949928 0.9375
  endloop
endfacet
facet normal 0.0 0.0 1.0
  outer loop
    vertex 1.336558002304878 1.9367164757949928 0.9375
    vertex 1.4207380717789384 0.09087594143769451 0.9375
    vertex 1.5683477643835952 1.8166254535770312 0.9375
  endloop
endfacet
facet normal 0.0 0.0 1.0
  outer loop
    vertex 1.5683477643835952 1.8166254535770312 0.9375
    vertex 1.4207380717789384 0.09087594143769451 0.9375
    vertex 1.6406348288254935 0.23156625262603425 0.9375
  endloop
endfacet
facet normal 0.0 0.0 1.0
  outer loop
    vertex 1.5683477643835952 1.8166254535770312 0.9375
    vertex 1.6406348288254935 0.23156625262603425 0.9375
    vertex 1.7611576381489882 1.6406348288254933 0.9375
  endloop
endfacet
facet normal 0.0 0.0 1.0
  outer loop
    vertex 1.7611576381489882 1.6406348288254933 0.9375
    vertex 1.6406348288254935 0.23156625262603425 0.9375
    vertex 1.8166254535770312 0.4243761263914272 0.9375
  endloop
endfacet
facet normal 0.0 0.0 1.0
  outer loop
    vertex 1.7611576381489882 1.6406348288254933 0.9375
    vertex 1.8166254535770312 0.4243761263914272 0.9375
    vertex 1.9018479493373275 1.4207380717789384 0.9375
  endloop
endfacet
facet normal 0.0 0.0 1.0
  outer loop
    vertex 1.9018479493373275 1.4207380717789384 0.9375
    vertex 1.8166254535770312 0.4243761263914272 0.9375
    vertex 1.9367164757949928 0.6561658884701447 0.9375
  endloop
endfacet
facet normal 0.0 0.0 1.0
  outer loop
    vertex 1.9018479493373275 1.4207380717789384 0.9375
    vertex 1.9367164757949928 0.6561658884701447 0.9375
    vertex 1.98083088574286 1.1719207830335159 0.9375
  endloop
endfacet
facet normal 0.0 0.0 1.0
  outer loop
    vertex 1.98083088574286 1.1719207830335159 0.9375
    vertex 1.9367164757949928 0.6561658884701447 0.9375
    vertex 1.9927238907750224 0.9111394496272145 0.9375
  endloop
endfacet
facet normal 0.0 0.0 1.0
  outer loop
    vertex 0.5719858189960842 1.901847949337328 0.9375
    vertex 0.6477717637686234 1.3435012504615589 0.9375
    vertex 0.8208031077415066 1.98083088574286 0.9375
  endloop
endfacet
facet normal 0.0 0.0 1.0
  outer loop
    vertex 0.6477717637686234 1.3435012504615589 0.9375
    vertex 0.5719858189960842 1.901847949337328 0.9375
    vertex 0.6477717637686234 0.6560012504615589 0.9375
  endloop
endfacet
facet normal 0.0 0.0 1.0
  outer loop
    vertex 0.8208031077415066 1.98083088574286 0.9375
    vertex 0.6477717637686234 1.3435012504615589 0.9375
    vertex 1.3352717637686236 1.3435012504615589 0.9375
  endloop
endfacet
facet normal 0.0 0.0 1.0
  outer loop
    vertex 0.8208031077415066 1.98083088574286 0.9375
    vertex 1.3352717637686236 1.3435012504615589 0.9375
    vertex 1.081584441147808 1.9927238907750224 0.9375
  endloop
endfacet
facet normal 0.0 0.0 1.0
  outer loop
    vertex 1.081584441147808 1.9927238907750224 0.9375
    vertex 1.3352717637686236 1.3435012504615589 0.9375
    vertex 1.336558002304878 1.9367164757949928 0.9375
  endloop
endfacet
endsolid crane_base
